FacadeStencil-Regular.ufo
<glyph name="asterisk" format="2">
  <advance width="600"/>
  <unicode hex="002A"/>
  <outline>
    <contour>
      <point x="189" y="407" type="line"/>
      <point x="300" y="582" type="line"/>
      <point x="411" y="407" type="line"/>
      <point x="488" y="464" type="line"/>
      <point x="356" y="624" type="line"/>
      <point x="558" y="676" type="line"/>
      <point x="528" y="767" type="line"/>
      <point x="335" y="691" type="line"/>
      <point x="348" y="900" type="line"/>
      <point x="252" y="900" type="line"/>
      <point x="265" y="691" type="line"/>
      <point x="72" y="767" type="line"/>
      <point x="42" y="676" type="line"/>
      <point x="244" y="624" type="line"/>
      <point x="112" y="464" type="line"/>
    </contour>
  </outline>
</glyph>
<glyph name="three" format="2">
  <advance width="750"/>
  <unicode hex="0033"/>
  <outline>
    <contour>
      <point x="372" y="-11" type="line"/>
      <point x="530" y="4"/>
      <point x="654" y="132"/>
      <point x="654" y="294" type="curve" smooth="yes"/>
      <point x="654" y="443"/>
      <point x="547" y="558"/>
      <point x="413" y="585" type="curve"/>
      <point x="582" y="900" type="line"/>
      <point x="466" y="900" type="line"/>
      <point x="245" y="473" type="line"/>
      <point x="272" y="488"/>
      <point x="305" y="498"/>
      <point x="342" y="498" type="curve" smooth="yes"/>
      <point x="455" y="498"/>
      <point x="546" y="406"/>
      <point x="546" y="294" type="curve" smooth="yes"/>
      <point x="546" y="191"/>
      <point x="471" y="106"/>
      <point x="372" y="92" type="curve"/>
    </contour>
    <contour>
      <point x="312" y="-11" type="curve"/>
      <point x="312" y="92" type="line"/>
      <point x="222" y="105"/>
      <point x="151" y="176"/>
      <point x="138" y="269" type="curve"/>
      <point x="72" y="138" type="line"/>
      <point x="122" y="53"/>
      <point x="210" y="-2"/>
    </contour>
    <contour>
      <point x="138" y="804" type="line"/>
      <point x="350" y="804" type="line"/>
      <point x="400" y="900" type="line"/>
      <point x="138" y="900" type="line"/>
    </contour>
  </outline>
</glyph>
<glyph name="C" format="2">
  <advance width="900"/>
  <unicode hex="0043"/>
  <anchor x="530" y="0" name="bottom"/>
  <anchor x="530" y="900" name="top"/>
  <outline>
    <contour>
      <point x="496" y="-17" type="curve"/>
      <point x="496" y="91" type="line"/>
      <point x="315" y="108"/>
      <point x="178" y="262"/>
      <point x="178" y="450" type="curve" smooth="yes"/>
      <point x="178" y="638"/>
      <point x="315" y="792"/>
      <point x="496" y="809" type="curve"/>
      <point x="496" y="917" type="line"/>
      <point x="253" y="900"/>
      <point x="60" y="698"/>
      <point x="60" y="450" type="curve" smooth="yes"/>
      <point x="60" y="202"/>
      <point x="253" y="0"/>
    </contour>
    <contour>
      <point x="564" y="-17" type="line"/>
      <point x="675" y="-10"/>
      <point x="779" y="39"/>
      <point x="858" y="115" type="curve"/>
      <point x="825" y="253" type="line"/>
      <point x="768" y="162"/>
      <point x="672" y="100"/>
      <point x="564" y="91" type="curve"/>
    </contour>
    <contour>
      <point x="825" y="647" type="curve"/>
      <point x="858" y="785" type="line"/>
      <point x="779" y="861"/>
      <point x="675" y="910"/>
      <point x="564" y="917" type="curve"/>
      <point x="564" y="809" type="line"/>
      <point x="671" y="800"/>
      <point x="768" y="738"/>
    </contour>
  </outline>
</glyph>
<glyph name="E" format="2">
  <advance width="630"/>
  <unicode hex="0045"/>
  <anchor x="348" y="0" name="bottom"/>
  <anchor x="520" y="0" name="ogonek"/>
  <anchor x="348" y="900" name="top"/>
  <anchor x="126" y="900" name="topleft"/>
  <outline>
    <contour>
      <point x="126" y="0" type="line"/>
      <point x="240" y="0" type="line"/>
      <point x="240" y="900" type="line"/>
      <point x="126" y="900" type="line"/>
    </contour>
    <contour>
      <point x="300" y="0" type="line"/>
      <point x="570" y="0" type="line"/>
      <point x="570" y="102" type="line"/>
      <point x="300" y="102" type="line"/>
    </contour>
    <contour>
      <point x="300" y="504" type="line"/>
      <point x="500" y="504" type="line"/>
      <point x="500" y="606" type="line"/>
      <point x="300" y="606" type="line"/>
    </contour>
    <contour>
      <point x="300" y="798" type="line"/>
      <point x="570" y="798" type="line"/>
      <point x="570" y="900" type="line"/>
      <point x="300" y="900" type="line"/>
    </contour>
  </outline>
</glyph>
<glyph name="J" format="2">
  <advance width="540"/>
  <unicode hex="004A"/>
  <anchor x="156" y="0" name="bottom"/>
  <anchor x="375" y="900" name="top"/>
  <outline>
    <contour>
      <point x="318" y="20" type="line"/>
      <point x="385" y="59"/>
      <point x="432" y="133"/>
      <point x="432" y="247" type="curve" smooth="yes"/>
      <point x="432" y="900" type="line"/>
      <point x="318" y="900" type="line"/>
    </contour>
    <contour>
      <point x="184" y="-12" type="curve" smooth="yes"/>
      <point x="208" y="-12"/>
      <point x="232" y="-9"/>
      <point x="254" y="-4" type="curve"/>
      <point x="254" y="109" type="line"/>
      <point x="233" y="96"/>
      <point x="209" y="90"/>
      <point x="183" y="90" type="curve" smooth="yes"/>
      <point x="123" y="90"/>
      <point x="75" y="122"/>
      <point x="45" y="174" type="curve"/>
      <point x="12" y="54" type="line"/>
      <point x="57" y="6"/>
      <point x="122" y="-12"/>
    </contour>
  </outline>
</glyph>
<glyph name="K" format="2">
  <advance width="780"/>
  <unicode hex="004B"/>
  <anchor x="438" y="0" name="bottom"/>
  <anchor x="400" y="900" name="top"/>
  <outline>
    <contour>
      <point x="635" y="0" type="line"/>
      <point x="774" y="0" type="line"/>
      <point x="359" y="597" type="line"/>
      <point x="352" y="516" type="line"/>
      <point x="694" y="900" type="line"/>
      <point x="560" y="900" type="line"/>
      <point x="300" y="608" type="line"/>
      <point x="300" y="486" type="line"/>
    </contour>
    <contour>
      <point x="126" y="0" type="line"/>
      <point x="240" y="0" type="line"/>
      <point x="240" y="900" type="line"/>
      <point x="126" y="900" type="line"/>
    </contour>
  </outline>
</glyph>
<glyph name="M" format="2">
  <advance width="1080"/>
  <unicode hex="004D"/>
  <outline>
    <contour>
      <point x="540" y="168" type="line"/>
      <point x="954" y="754" type="line"/>
      <point x="954" y="930" type="line"/>
      <point x="544" y="354" type="line"/>
      <point x="126" y="930" type="line"/>
      <point x="126" y="738" type="line"/>
    </contour>
    <contour>
      <point x="126" y="0" type="line"/>
      <point x="234" y="0" type="line"/>
      <point x="234" y="489" type="line"/>
      <point x="126" y="638" type="line"/>
    </contour>
    <contour>
      <point x="840" y="0" type="line"/>
      <point x="954" y="0" type="line"/>
      <point x="954" y="654" type="line"/>
      <point x="840" y="493" type="line"/>
    </contour>
  </outline>
</glyph>
<glyph name="S" format="2">
  <advance width="660"/>
  <unicode hex="0053"/>
  <anchor x="322" y="0" name="bottom"/>
  <anchor x="343" y="900" name="top"/>
  <outline>
    <contour>
      <point x="352" y="-11" type="line"/>
      <point x="496" y="3"/>
      <point x="600" y="109"/>
      <point x="600" y="253" type="curve" smooth="yes"/>
      <point x="600" y="412"/>
      <point x="473" y="476"/>
      <point x="419" y="503" type="curve" smooth="yes"/>
      <point x="307" y="559" type="line" smooth="yes"/>
      <point x="277" y="574"/>
      <point x="208" y="609"/>
      <point x="208" y="689" type="curve" smooth="yes"/>
      <point x="208" y="750"/>
      <point x="248" y="799"/>
      <point x="313" y="810" type="curve"/>
      <point x="313" y="910" type="line"/>
      <point x="183" y="897"/>
      <point x="96" y="804"/>
      <point x="96" y="678" type="curve" smooth="yes"/>
      <point x="96" y="538"/>
      <point x="204" y="483"/>
      <point x="257" y="456" type="curve" smooth="yes"/>
      <point x="367" y="400" type="line" smooth="yes"/>
      <point x="401" y="383"/>
      <point x="488" y="341"/>
      <point x="488" y="246" type="curve" smooth="yes"/>
      <point x="488" y="167"/>
      <point x="432" y="104"/>
      <point x="352" y="92" type="curve"/>
    </contour>
    <contour>
      <point x="292" y="-11" type="curve"/>
      <point x="292" y="92" type="line"/>
      <point x="204" y="105"/>
      <point x="139" y="169"/>
      <point x="106" y="236" type="curve"/>
      <point x="73" y="98" type="line"/>
      <point x="119" y="42"/>
      <point x="197" y="-3"/>
    </contour>
    <contour>
      <point x="525" y="696" type="curve"/>
      <point x="558" y="834" type="line"/>
      <point x="521" y="866"/>
      <point x="456" y="904"/>
      <point x="373" y="911" type="curve"/>
      <point x="373" y="809" type="line"/>
      <point x="440" y="796"/>
      <point x="497" y="744"/>
    </contour>
  </outline>
</glyph>
<glyph name="V" format="2">
  <advance width="750"/>
  <unicode hex="0056"/>
  <outline>
    <contour>
      <point x="374" y="-30" type="line"/>
      <point x="376" y="-30" type="line"/>
      <point x="436" y="124" type="line"/>
      <point x="132" y="900" type="line"/>
      <point x="12" y="900" type="line"/>
    </contour>
    <contour>
      <point x="468" y="207" type="line"/>
      <point x="738" y="900" type="line"/>
      <point x="625" y="900" type="line"/>
      <point x="412" y="352" type="line"/>
    </contour>
  </outline>
</glyph>
<glyph name="p" format="2">
  <advance width="760"/>
  <unicode hex="0070"/>
  <anchor x="390" y="0" name="bottom"/>
  <anchor x="390" y="600" name="top"/>
  <outline>
    <contour>
      <point x="407" y="-8" type="curve" smooth="yes"/>
      <point x="572" y="-8"/>
      <point x="706" y="130"/>
      <point x="706" y="300" type="curve" smooth="yes"/>
      <point x="706" y="470"/>
      <point x="572" y="608"/>
      <point x="407" y="608" type="curve" smooth="yes"/>
      <point x="355" y="608"/>
      <point x="307" y="595"/>
      <point x="264" y="572" type="curve"/>
      <point x="264" y="464" type="line"/>
      <point x="299" y="493"/>
      <point x="344" y="510"/>
      <point x="393" y="510" type="curve" smooth="yes"/>
      <point x="507" y="510"/>
      <point x="598" y="416"/>
      <point x="598" y="300" type="curve" smooth="yes"/>
      <point x="598" y="184"/>
      <point x="507" y="90"/>
      <point x="393" y="90" type="curve" smooth="yes"/>
      <point x="344" y="90"/>
      <point x="299" y="107"/>
      <point x="264" y="136" type="curve"/>
      <point x="264" y="28" type="line"/>
      <point x="307" y="5"/>
      <point x="355" y="-8"/>
    </contour>
    <contour>
      <point x="96" y="-300" type="line"/>
      <point x="204" y="-300" type="line"/>
      <point x="204" y="600" type="line"/>
      <point x="96" y="600" type="line"/>
    </contour>
  </outline>
</glyph>
<glyph name="w" format="2">
  <advance width="1000"/>
  <unicode hex="0077"/>
  <anchor x="500" y="0" name="bottom"/>
  <anchor x="504" y="600" name="top"/>
  <outline>
    <contour>
      <point x="685" y="-30" type="line"/>
      <point x="735" y="73" type="line"/>
      <point x="504" y="628" type="line"/>
      <point x="353" y="273" type="line"/>
      <point x="404" y="166" type="line"/>
      <point x="500" y="395" type="line"/>
    </contour>
    <contour>
      <point x="315" y="-30" type="line"/>
      <point x="371" y="93" type="line"/>
      <point x="135" y="600" type="line"/>
      <point x="12" y="600" type="line"/>
    </contour>
    <contour>
      <point x="770" y="147" type="line"/>
      <point x="988" y="600" type="line"/>
      <point x="873" y="600" type="line"/>
      <point x="718" y="272" type="line"/>
    </contour>
  </outline>
</glyph>
<glyph name="asciitilde" format="2">
  <advance width="750"/>
  <unicode hex="007E"/>
  <outline>
    <contour>
      <point x="96" y="333" type="line"/>
      <point x="126" y="397"/>
      <point x="171" y="444"/>
      <point x="238" y="444" type="curve" smooth="yes"/>
      <point x="328" y="444"/>
      <point x="412" y="360"/>
      <point x="518" y="360" type="curve" smooth="yes"/>
      <point x="596" y="360"/>
      <point x="666" y="405"/>
      <point x="702" y="484" type="curve"/>
      <point x="654" y="567" type="line"/>
      <point x="624" y="503"/>
      <point x="579" y="456"/>
      <point x="512" y="456" type="curve" smooth="yes"/>
      <point x="422" y="456"/>
      <point x="338" y="540"/>
      <point x="232" y="540" type="curve" smooth="yes"/>
      <point x="154" y="540"/>
      <point x="84" y="495"/>
      <point x="48" y="416" type="curve"/>
    </contour>
  </outline>
</glyph>
<glyph name="exclamdown" format="2">
  <advance width="480"/>
  <unicode hex="00A1"/>
  <outline>
    <contour>
      <point x="186" y="-302" type="line"/>
      <point x="294" y="-302" type="line"/>
      <point x="288" y="298" type="line"/>
      <point x="192" y="298" type="line"/>
    </contour>
    <contour>
      <point x="240" y="460" type="curve" smooth="yes"/>
      <point x="282" y="460"/>
      <point x="315" y="493"/>
      <point x="315" y="535" type="curve" smooth="yes"/>
      <point x="315" y="577"/>
      <point x="282" y="610"/>
      <point x="240" y="610" type="curve" smooth="yes"/>
      <point x="197" y="610"/>
      <point x="165" y="577"/>
      <point x="165" y="535" type="curve" smooth="yes"/>
      <point x="165" y="493"/>
      <point x="197" y="460"/>
    </contour>
  </outline>
</glyph>
<glyph name="cent" format="2">
  <advance width="750"/>
  <unicode hex="00A2"/>
  <outline>
    <contour>
      <point x="115" y="480" type="curve"/>
      <point x="224" y="480" type="line"/>
      <point x="239" y="581"/>
      <point x="325" y="660"/>
      <point x="431" y="660" type="curve" smooth="yes"/>
      <point x="516" y="660"/>
      <point x="587" y="609"/>
      <point x="621" y="542" type="curve"/>
      <point x="654" y="678" type="line"/>
      <point x="597" y="729"/>
      <point x="519" y="762"/>
      <point x="432" y="762" type="curve" smooth="yes"/>
      <point x="266" y="762"/>
      <point x="131" y="638"/>
    </contour>
    <contour>
      <point x="378" y="0" type="line"/>
      <point x="462" y="0" type="line"/>
      <point x="462" y="180" type="line"/>
      <point x="378" y="180" type="line"/>
    </contour>
    <contour>
      <point x="432" y="138" type="curve" smooth="yes"/>
      <point x="519" y="138"/>
      <point x="597" y="171"/>
      <point x="654" y="222" type="curve"/>
      <point x="621" y="358" type="line"/>
      <point x="587" y="289"/>
      <point x="516" y="240"/>
      <point x="431" y="240" type="curve" smooth="yes"/>
      <point x="325" y="240"/>
      <point x="239" y="319"/>
      <point x="224" y="420" type="curve"/>
      <point x="115" y="420" type="line"/>
      <point x="131" y="262"/>
      <point x="266" y="138"/>
    </contour>
    <contour>
      <point x="378" y="720" type="line"/>
      <point x="462" y="720" type="line"/>
      <point x="462" y="870" type="line"/>
      <point x="378" y="870" type="line"/>
    </contour>
  </outline>
</glyph>
<glyph name="AE" format="2">
  <advance width="1020"/>
  <unicode hex="00C6"/>
  <anchor x="400" y="0" name="bottom"/>
  <anchor x="681" y="0" name="ogonek"/>
  <anchor x="400" y="900" name="top"/>
  <anchor x="120" y="720" name="top-vertical"/>
  <anchor x="461" y="900" name="topleft"/>
  <outline>
    <contour>
      <point x="627" y="0" type="line"/>
      <point x="742" y="0" type="line"/>
      <point x="466" y="900" type="line"/>
      <point x="388" y="900" type="line"/>
      <point x="368" y="851" type="line"/>
    </contour>
    <contour>
      <point x="18" y="0" type="line"/>
      <point x="133" y="0" type="line"/>
      <point x="379" y="617" type="line"/>
      <point x="333" y="767" type="line"/>
    </contour>
    <contour>
      <point x="300" y="267" type="line"/>
      <point x="583" y="267" type="line"/>
      <point x="548" y="362" type="line"/>
      <point x="338" y="362" type="line"/>
    </contour>
    <contour>
      <point x="801" y="0" type="line"/>
      <point x="990" y="0" type="line"/>
      <point x="990" y="102" type="line"/>
      <point x="770" y="102" type="line"/>
    </contour>
    <contour>
      <point x="647" y="504" type="line"/>
      <point x="816" y="504" type="line"/>
      <point x="816" y="606" type="line"/>
      <point x="616" y="606" type="line"/>
    </contour>
    <contour>
      <point x="557" y="798" type="line"/>
      <point x="786" y="798" type="line"/>
      <point x="786" y="900" type="line"/>
      <point x="526" y="900" type="line"/>
    </contour>
  </outline>
</glyph>
<glyph name="divide" format="2">
  <advance width="750"/>
  <unicode hex="00F7"/>
  <outline>
    <contour>
      <point x="60" y="405" type="line"/>
      <point x="690" y="405" type="line"/>
      <point x="690" y="495" type="line"/>
      <point x="60" y="495" type="line"/>
    </contour>
    <contour>
      <point x="375" y="171" type="curve" smooth="yes"/>
      <point x="415" y="171"/>
      <point x="444" y="201"/>
      <point x="444" y="240" type="curve" smooth="yes"/>
      <point x="444" y="279"/>
      <point x="415" y="309"/>
      <point x="375" y="309" type="curve" smooth="yes"/>
      <point x="336" y="309"/>
      <point x="306" y="279"/>
      <point x="306" y="240" type="curve" smooth="yes"/>
      <point x="306" y="201"/>
      <point x="336" y="171"/>
    </contour>
    <contour>
      <point x="375" y="591" type="curve" smooth="yes"/>
      <point x="415" y="591"/>
      <point x="444" y="621"/>
      <point x="444" y="660" type="curve" smooth="yes"/>
      <point x="444" y="699"/>
      <point x="415" y="729"/>
      <point x="375" y="729" type="curve" smooth="yes"/>
      <point x="336" y="729"/>
      <point x="306" y="699"/>
      <point x="306" y="660" type="curve" smooth="yes"/>
      <point x="306" y="621"/>
      <point x="336" y="591"/>
    </contour>
  </outline>
</glyph>
<glyph name="Eng" format="2">
  <advance width="990"/>
  <unicode hex="014A"/>
  <anchor x="495" y="0" name="bottom"/>
  <anchor x="495" y="900" name="top"/>
  <outline>
    <contour>
      <point x="756" y="-160" type="line"/>
      <point x="820" y="-123"/>
      <point x="864" y="-54"/>
      <point x="864" y="55" type="curve" smooth="yes"/>
      <point x="864" y="139" type="line"/>
      <point x="126" y="930" type="line"/>
      <point x="126" y="761" type="line"/>
      <point x="756" y="86" type="line"/>
    </contour>
    <contour>
      <point x="622" y="-192" type="curve" smooth="yes"/>
      <point x="646" y="-192"/>
      <point x="670" y="-189"/>
      <point x="692" y="-184" type="curve"/>
      <point x="692" y="-71" type="line"/>
      <point x="671" y="-84"/>
      <point x="647" y="-90"/>
      <point x="621" y="-90" type="curve" smooth="yes"/>
      <point x="561" y="-90"/>
      <point x="513" y="-58"/>
      <point x="483" y="-6" type="curve"/>
      <point x="450" y="-126" type="line"/>
      <point x="495" y="-174"/>
      <point x="560" y="-192"/>
    </contour>
    <contour>
      <point x="126" y="0" type="line"/>
      <point x="234" y="0" type="line"/>
      <point x="234" y="566" type="line"/>
      <point x="126" y="682" type="line"/>
    </contour>
    <contour>
      <point x="864" y="220" type="line"/>
      <point x="864" y="900" type="line"/>
      <point x="756" y="900" type="line"/>
      <point x="756" y="336" type="line"/>
    </contour>
  </outline>
</glyph>
<glyph name="eng" format="2">
  <advance width="720"/>
  <unicode hex="014B"/>
  <outline>
    <contour>
      <point x="463" y="-312" type="line"/>
      <point x="562" y="-312"/>
      <point x="636" y="-244"/>
      <point x="636" y="-124" type="curve" smooth="yes"/>
      <point x="636" y="345" type="line" smooth="yes"/>
      <point x="636" y="514"/>
      <point x="522" y="612"/>
      <point x="395" y="612" type="curve" smooth="yes"/>
      <point x="347" y="612"/>
      <point x="302" y="599"/>
      <point x="264" y="573" type="curve"/>
      <point x="264" y="473" type="line"/>
      <point x="292" y="498"/>
      <point x="328" y="510"/>
      <point x="366" y="510" type="curve" smooth="yes"/>
      <point x="469" y="510"/>
      <point x="528" y="425"/>
      <point x="528" y="330" type="curve" smooth="yes"/>
      <point x="528" y="-122" type="line" smooth="yes"/>
      <point x="528" y="-195"/>
      <point x="492" y="-219"/>
      <point x="441" y="-219" type="curve"/>
    </contour>
    <contour>
      <point x="96" y="0" type="line"/>
      <point x="204" y="0" type="line"/>
      <point x="204" y="600" type="line"/>
      <point x="96" y="600" type="line"/>
    </contour>
  </outline>
</glyph>
<glyph name="oe" format="2">
  <advance width="1210"/>
  <unicode hex="0153"/>
  <anchor x="605" y="0" name="bottom"/>
  <anchor x="605" y="600" name="top"/>
  <outline>
    <contour>
      <point x="338" y="-11" type="curve"/>
      <point x="338" y="92" type="line"/>
      <point x="238" y="107"/>
      <point x="162" y="194"/>
      <point x="162" y="300" type="curve" smooth="yes"/>
      <point x="162" y="406"/>
      <point x="237" y="493"/>
      <point x="337" y="508" type="curve"/>
      <point x="337" y="611" type="line"/>
      <point x="178" y="595"/>
      <point x="54" y="463"/>
      <point x="54" y="300" type="curve" smooth="yes"/>
      <point x="54" y="137"/>
      <point x="178" y="4"/>
    </contour>
    <contour>
      <point x="576" y="270" type="curve"/>
      <point x="665" y="270" type="line"/>
      <point x="663" y="282"/>
      <point x="662" y="295"/>
      <point x="662" y="308" type="curve"/>
      <point x="656" y="308" type="line"/>
      <point x="656" y="407"/>
      <point x="728" y="496"/>
      <point x="825" y="513" type="curve"/>
      <point x="825" y="610" type="line"/>
      <point x="741" y="601"/>
      <point x="667" y="557"/>
      <point x="618" y="494" type="curve"/>
      <point x="566" y="559"/>
      <point x="490" y="603"/>
      <point x="402" y="611" type="curve"/>
      <point x="402" y="508" type="line"/>
      <point x="502" y="493"/>
      <point x="578" y="406"/>
      <point x="578" y="300" type="curve" smooth="yes"/>
      <point x="578" y="290"/>
      <point x="577" y="280"/>
    </contour>
    <contour>
      <point x="598" y="270" type="line"/>
      <point x="1162" y="270" type="line"/>
      <point x="1162" y="314" type="line" smooth="yes"/>
      <point x="1162" y="473"/>
      <point x="1041" y="596"/>
      <point x="889" y="611" type="curve"/>
      <point x="889" y="514" type="line"/>
      <point x="984" y="499"/>
      <point x="1060" y="417"/>
      <point x="1060" y="314" type="curve"/>
      <point x="1082" y="351" type="line"/>
      <point x="1044" y="357"/>
      <point x="1007" y="360"/>
      <point x="969" y="360" type="curve" smooth="yes"/>
      <point x="770" y="360" type="line" smooth="yes"/>
      <point x="713" y="360"/>
      <point x="655" y="352"/>
      <point x="598" y="340" type="curve"/>
    </contour>
    <contour>
      <point x="402" y="-11" type="line"/>
      <point x="491" y="-3"/>
      <point x="569" y="42"/>
      <point x="621" y="109" type="curve"/>
      <point x="673" y="43"/>
      <point x="753" y="-2"/>
      <point x="848" y="-10" type="curve"/>
      <point x="848" y="93" type="line"/>
      <point x="773" y="104"/>
      <point x="712" y="151"/>
      <point x="682" y="216" type="curve"/>
      <point x="561" y="216" type="line"/>
      <point x="533" y="150"/>
      <point x="474" y="102"/>
      <point x="402" y="92" type="curve"/>
    </contour>
    <contour>
      <point x="913" y="-11" type="line"/>
      <point x="983" y="-5"/>
      <point x="1047" y="21"/>
      <point x="1098" y="62" type="curve"/>
      <point x="1068" y="185" type="line"/>
      <point x="1033" y="136"/>
      <point x="977" y="100"/>
      <point x="913" y="92" type="curve"/>
    </contour>
  </outline>
</glyph>
<glyph name="Schwa" format="2">
  <advance width="1050"/>
  <unicode hex="018F"/>
  <outline>
    <contour>
      <point x="488" y="-17" type="curve"/>
      <point x="488" y="91" type="line"/>
      <point x="308" y="107"/>
      <point x="172" y="261"/>
      <point x="172" y="450" type="curve"/>
      <point x="124" y="408" type="line"/>
      <point x="754" y="408" type="line" smooth="yes"/>
      <point x="811" y="408"/>
      <point x="869" y="416"/>
      <point x="926" y="428" type="curve"/>
      <point x="926" y="490" type="line"/>
      <point x="869" y="502"/>
      <point x="811" y="510"/>
      <point x="754" y="510" type="curve" smooth="yes"/>
      <point x="54" y="510" type="line"/>
      <point x="54" y="455" type="line" smooth="yes"/>
      <point x="54" y="202"/>
      <point x="246" y="-1"/>
    </contour>
    <contour>
      <point x="225" y="647" type="line"/>
      <point x="282" y="737"/>
      <point x="377" y="799"/>
      <point x="488" y="809" type="curve"/>
      <point x="488" y="917" type="line"/>
      <point x="373" y="910"/>
      <point x="270" y="860"/>
      <point x="192" y="785" type="curve"/>
    </contour>
    <contour>
      <point x="552" y="-17" type="line"/>
      <point x="797" y="-2"/>
      <point x="990" y="201"/>
      <point x="990" y="450" type="curve" smooth="yes"/>
      <point x="990" y="699"/>
      <point x="797" y="902"/>
      <point x="552" y="917" type="curve"/>
      <point x="552" y="809" type="line"/>
      <point x="734" y="794"/>
      <point x="872" y="639"/>
      <point x="872" y="450" type="curve" smooth="yes"/>
      <point x="872" y="261"/>
      <point x="734" y="107"/>
      <point x="552" y="91" type="curve"/>
    </contour>
  </outline>
</glyph>
<glyph name="Ohorn" format="2">
  <advance width="1060"/>
  <unicode hex="01A0"/>
  <anchor x="530" y="0" name="bottom"/>
  <anchor x="530" y="0" name="ogonek"/>
  <anchor x="530" y="900" name="top"/>
  <outline>
    <contour>
      <point x="564" y="-17" type="line"/>
      <point x="806" y="-2"/>
      <point x="1000" y="201"/>
      <point x="1000" y="450" type="curve" smooth="yes"/>
      <point x="1000" y="699"/>
      <point x="806" y="902"/>
      <point x="564" y="917" type="curve"/>
      <point x="564" y="809" type="line"/>
      <point x="743" y="794"/>
      <point x="882" y="639"/>
      <point x="882" y="450" type="curve" smooth="yes"/>
      <point x="882" y="261"/>
      <point x="743" y="106"/>
      <point x="564" y="91" type="curve"/>
    </contour>
    <contour>
      <point x="496" y="-17" type="curve"/>
      <point x="496" y="91" type="line"/>
      <point x="317" y="106"/>
      <point x="178" y="261"/>
      <point x="178" y="450" type="curve" smooth="yes"/>
      <point x="178" y="639"/>
      <point x="317" y="794"/>
      <point x="496" y="809" type="curve"/>
      <point x="496" y="917" type="line"/>
      <point x="254" y="902"/>
      <point x="60" y="699"/>
      <point x="60" y="450" type="curve" smooth="yes"/>
      <point x="60" y="201"/>
      <point x="254" y="-2"/>
    </contour>
    <contour>
      <point x="948" y="730" type="line"/>
      <point x="983" y="759"/>
      <point x="1006" y="806"/>
      <point x="1006" y="868" type="curve" smooth="yes"/>
      <point x="1006" y="897"/>
      <point x="1001" y="928"/>
      <point x="982" y="960" type="curve"/>
      <point x="886" y="960" type="line"/>
      <point x="905" y="927"/>
      <point x="910" y="892"/>
      <point x="910" y="868" type="curve" smooth="yes"/>
      <point x="910" y="845"/>
      <point x="904" y="823"/>
      <point x="893" y="807" type="curve"/>
      <point x="886" y="834" type="line"/>
      <point x="917" y="805"/>
      <point x="945" y="773"/>
      <point x="968" y="737" type="curve"/>
    </contour>
  </outline>
</glyph>
<glyph name="ohorn" format="2">
  <advance width="770"/>
  <unicode hex="01A1"/>
  <anchor x="370" y="0" name="bottom"/>
  <anchor x="370" y="600" name="top"/>
  <outline>
    <contour>
      <point x="404" y="-11" type="line"/>
      <point x="563" y="4"/>
      <point x="686" y="137"/>
      <point x="686" y="300" type="curve" smooth="yes"/>
      <point x="686" y="463"/>
      <point x="563" y="596"/>
      <point x="404" y="611" type="curve"/>
      <point x="404" y="508" type="line"/>
      <point x="503" y="493"/>
      <point x="578" y="406"/>
      <point x="578" y="300" type="curve" smooth="yes"/>
      <point x="578" y="194"/>
      <point x="503" y="107"/>
      <point x="404" y="92" type="curve"/>
    </contour>
    <contour>
      <point x="336" y="-11" type="curve"/>
      <point x="336" y="92" type="line"/>
      <point x="236" y="107"/>
      <point x="162" y="194"/>
      <point x="162" y="300" type="curve" smooth="yes"/>
      <point x="162" y="406"/>
      <point x="236" y="493"/>
      <point x="336" y="508" type="curve"/>
      <point x="336" y="611" type="line"/>
      <point x="177" y="596"/>
      <point x="54" y="463"/>
      <point x="54" y="300" type="curve" smooth="yes"/>
      <point x="54" y="137"/>
      <point x="177" y="4"/>
    </contour>
    <contour>
      <point x="718" y="427" type="curve"/>
      <point x="691" y="433" type="line"/>
      <point x="724" y="461"/>
      <point x="746" y="507"/>
      <point x="746" y="568" type="curve" smooth="yes"/>
      <point x="746" y="597"/>
      <point x="741" y="628"/>
      <point x="722" y="660" type="curve"/>
      <point x="632" y="660" type="line"/>
      <point x="651" y="627"/>
      <point x="656" y="592"/>
      <point x="656" y="568" type="curve" smooth="yes"/>
      <point x="656" y="548"/>
      <point x="652" y="531"/>
      <point x="646" y="518" type="curve"/>
      <point x="617" y="575" type="line"/>
      <point x="662" y="535"/>
      <point x="697" y="484"/>
    </contour>
  </outline>
</glyph>
<glyph name="Ezh" format="2">
  <advance width="660"/>
  <unicode hex="01B7"/>
  <anchor x="302" y="0" name="bottom"/>
  <anchor x="313" y="900" name="top"/>
  <outline>
    <contour>
      <point x="334" y="-11" type="line"/>
      <point x="493" y="4"/>
      <point x="618" y="135"/>
      <point x="618" y="300" type="curve" smooth="yes"/>
      <point x="618" y="465"/>
      <point x="491" y="588"/>
      <point x="340" y="602" type="curve"/>
      <point x="352" y="540" type="line"/>
      <point x="545" y="900" type="line"/>
      <point x="426" y="900" type="line"/>
      <point x="181" y="427" type="line"/>
      <point x="180" y="462" type="line"/>
      <point x="210" y="486"/>
      <point x="253" y="504"/>
      <point x="302" y="504" type="curve" smooth="yes"/>
      <point x="414" y="504"/>
      <point x="504" y="412"/>
      <point x="504" y="300" type="curve" smooth="yes"/>
      <point x="504" y="197"/>
      <point x="431" y="112"/>
      <point x="334" y="98" type="curve"/>
    </contour>
    <contour>
      <point x="270" y="-11" type="curve"/>
      <point x="270" y="98" type="line"/>
      <point x="169" y="113"/>
      <point x="92" y="202"/>
      <point x="96" y="312" type="curve"/>
      <point x="118" y="315" type="line"/>
      <point x="6" y="92" type="line"/>
      <point x="16" y="169" type="line"/>
      <point x="62" y="67"/>
      <point x="157" y="0"/>
    </contour>
    <contour>
      <point x="84" y="798" type="line"/>
      <point x="306" y="798" type="line"/>
      <point x="360" y="900" type="line"/>
      <point x="84" y="900" type="line"/>
    </contour>
  </outline>
</glyph>
<glyph name="schwa" format="2">
  <advance width="710"/>
  <unicode hex="0259"/>
  <anchor x="352" y="0" name="bottom"/>
  <anchor x="66" y="590" name="ogonek"/>
  <anchor x="352" y="600" name="top"/>
  <outline>
    <contour>
      <point x="142" y="415" type="line"/>
      <point x="177" y="464"/>
      <point x="233" y="500"/>
      <point x="297" y="508" type="curve"/>
      <point x="297" y="611" type="line"/>
      <point x="227" y="605"/>
      <point x="163" y="579"/>
      <point x="112" y="538" type="curve"/>
    </contour>
    <contour>
      <point x="385" y="-11" type="line"/>
      <point x="538" y="4"/>
      <point x="656" y="134"/>
      <point x="656" y="294" type="curve" smooth="yes"/>
      <point x="656" y="463"/>
      <point x="533" y="597"/>
      <point x="361" y="611" type="curve"/>
      <point x="361" y="508" type="line"/>
      <point x="469" y="493"/>
      <point x="548" y="403"/>
      <point x="548" y="292" type="curve"/>
      <point x="554" y="292" type="line"/>
      <point x="554" y="192"/>
      <point x="482" y="102"/>
      <point x="385" y="86" type="curve"/>
    </contour>
    <contour>
      <point x="321" y="-11" type="curve"/>
      <point x="321" y="86" type="line"/>
      <point x="226" y="101"/>
      <point x="150" y="183"/>
      <point x="150" y="286" type="curve"/>
      <point x="128" y="249" type="line"/>
      <point x="166" y="243"/>
      <point x="203" y="240"/>
      <point x="241" y="240" type="curve" smooth="yes"/>
      <point x="440" y="240" type="line" smooth="yes"/>
      <point x="497" y="240"/>
      <point x="555" y="248"/>
      <point x="612" y="260" type="curve"/>
      <point x="612" y="310" type="line"/>
      <point x="555" y="322"/>
      <point x="497" y="330"/>
      <point x="440" y="330" type="curve" smooth="yes"/>
      <point x="48" y="330" type="line"/>
      <point x="48" y="286" type="line" smooth="yes"/>
      <point x="48" y="127"/>
      <point x="169" y="4"/>
    </contour>
  </outline>
</glyph>
<glyph name="commaaccentcomb" format="2">
  <unicode hex="0326"/>
  <anchor x="360" y="0" name="_bottom"/>
  <anchor x="280" y="-330" name="bottom"/>
  <outline>
    <contour>
      <point x="222" y="-330" type="curve"/>
      <point x="338" y="-330" type="line"/>
      <point x="378" y="-268"/>
      <point x="406" y="-198"/>
      <point x="412" y="-120" type="curve"/>
      <point x="308" y="-120" type="line"/>
      <point x="301" y="-205"/>
      <point x="267" y="-274"/>
    </contour>
  </outline>
</glyph>
<glyph name="Germandbls" format="2">
  <advance width="990"/>
  <unicode hex="1E9E"/>
  <outline>
    <contour>
      <point x="515" y="473" type="line"/>
      <point x="542" y="488"/>
      <point x="575" y="498"/>
      <point x="612" y="498" type="curve" smooth="yes"/>
      <point x="620" y="498"/>
      <point x="628" y="498"/>
      <point x="636" y="497" type="curve"/>
      <point x="852" y="900" type="line"/>
      <point x="312" y="900" type="line"/>
      <point x="312" y="804" type="line"/>
      <point x="686" y="804" type="line"/>
    </contour>
    <contour>
      <point x="582" y="-11" type="curve"/>
      <point x="582" y="92" type="line"/>
      <point x="492" y="105"/>
      <point x="421" y="176"/>
      <point x="408" y="269" type="curve"/>
      <point x="342" y="138" type="line"/>
      <point x="392" y="53"/>
      <point x="480" y="-2"/>
    </contour>
    <contour>
      <point x="138" y="0" type="line"/>
      <point x="252" y="0" type="line"/>
      <point x="252" y="900" type="line"/>
      <point x="138" y="900" type="line"/>
    </contour>
    <contour>
      <point x="642" y="-11" type="line"/>
      <point x="799" y="4"/>
      <point x="922" y="132"/>
      <point x="922" y="294" type="curve" smooth="yes"/>
      <point x="922" y="419"/>
      <point x="847" y="520"/>
      <point x="745" y="565" type="curve"/>
      <point x="698" y="479" type="line"/>
      <point x="767" y="446"/>
      <point x="814" y="375"/>
      <point x="814" y="294" type="curve" smooth="yes"/>
      <point x="814" y="191"/>
      <point x="740" y="107"/>
      <point x="642" y="92" type="curve"/>
    </contour>
  </outline>
</glyph>
<glyph name="dagger" format="2">
  <advance width="600"/>
  <unicode hex="2020"/>
  <outline>
    <contour>
      <point x="72" y="585" type="line"/>
      <point x="528" y="585" type="line"/>
      <point x="528" y="675" type="line"/>
      <point x="347" y="672" type="line"/>
      <point x="354" y="900" type="line"/>
      <point x="246" y="900" type="line"/>
      <point x="253" y="672" type="line"/>
      <point x="72" y="675" type="line"/>
    </contour>
    <contour>
      <point x="246" y="0" type="line"/>
      <point x="354" y="0" type="line"/>
      <point x="348" y="531" type="line"/>
      <point x="252" y="531" type="line"/>
    </contour>
  </outline>
</glyph>
<glyph name="minute" format="2">
  <advance width="270"/>
  <unicode hex="2032"/>
  <outline>
    <contour>
      <point x="42" y="570" type="line"/>
      <point x="90" y="570" type="line"/>
      <point x="305" y="900" type="line"/>
      <point x="161" y="900" type="line"/>
    </contour>
  </outline>
</glyph>
<glyph name="numero" format="2">
  <advance width="1470"/>
  <unicode hex="2116"/>
  <outline>
    <contour>
      <point x="864" y="-30" type="line"/>
      <point x="864" y="139" type="line"/>
      <point x="126" y="930" type="line"/>
      <point x="126" y="761" type="line"/>
    </contour>
    <contour>
      <point x="126" y="0" type="line"/>
      <point x="234" y="0" type="line"/>
      <point x="234" y="555" type="line"/>
      <point x="126" y="671" type="line"/>
    </contour>
    <contour>
      <point x="864" y="229" type="line"/>
      <point x="864" y="900" type="line"/>
      <point x="756" y="900" type="line"/>
      <point x="756" y="344" type="line"/>
    </contour>
    <contour>
      <point x="1230" y="108" type="curve" smooth="yes"/>
      <point x="1273" y="108"/>
      <point x="1305" y="141"/>
      <point x="1305" y="183" type="curve" smooth="yes"/>
      <point x="1305" y="225"/>
      <point x="1273" y="258"/>
      <point x="1230" y="258" type="curve" smooth="yes"/>
      <point x="1188" y="258"/>
      <point x="1155" y="225"/>
      <point x="1155" y="183" type="curve" smooth="yes"/>
      <point x="1155" y="141"/>
      <point x="1188" y="108"/>
    </contour>
    <contour>
      <point x="1202" y="410" type="curve"/>
      <point x="1202" y="493" type="line"/>
      <point x="1151" y="506"/>
      <point x="1116" y="549"/>
      <point x="1116" y="600" type="curve" smooth="yes"/>
      <point x="1116" y="651"/>
      <point x="1151" y="694"/>
      <point x="1202" y="707" type="curve"/>
      <point x="1202" y="790" type="line"/>
      <point x="1104" y="776"/>
      <point x="1032" y="696"/>
      <point x="1032" y="600" type="curve" smooth="yes"/>
      <point x="1032" y="504"/>
      <point x="1104" y="424"/>
    </contour>
    <contour>
      <point x="1258" y="410" type="line"/>
      <point x="1356" y="424"/>
      <point x="1428" y="504"/>
      <point x="1428" y="600" type="curve" smooth="yes"/>
      <point x="1428" y="696"/>
      <point x="1356" y="776"/>
      <point x="1258" y="790" type="curve"/>
      <point x="1258" y="707" type="line"/>
      <point x="1308" y="694"/>
      <point x="1344" y="651"/>
      <point x="1344" y="600" type="curve" smooth="yes"/>
      <point x="1344" y="549"/>
      <point x="1308" y="506"/>
      <point x="1258" y="493" type="curve"/>
    </contour>
  </outline>
</glyph>
<glyph name="el.lf" format="2">
  <advance width="690"/>
  <outline>
    <contour>
      <point x="117" y="0" type="line"/>
      <point x="231" y="0" type="line"/>
      <point x="471" y="461" type="line"/>
      <point x="447" y="451"/>
      <point x="419" y="446"/>
      <point x="389" y="446" type="curve" smooth="yes"/>
      <point x="288" y="446"/>
      <point x="208" y="526"/>
      <point x="208" y="628" type="curve" smooth="yes"/>
      <point x="208" y="721"/>
      <point x="273" y="795"/>
      <point x="360" y="808" type="curve"/>
      <point x="360" y="911" type="line"/>
      <point x="214" y="896"/>
      <point x="100" y="778"/>
      <point x="100" y="627" type="curve" smooth="yes"/>
      <point x="100" y="484"/>
      <point x="209" y="367"/>
      <point x="344" y="355" type="curve"/>
      <point x="334" y="405" type="line"/>
    </contour>
    <contour>
      <point x="297" y="0" type="line"/>
      <point x="619" y="0" type="line"/>
      <point x="619" y="102" type="line"/>
      <point x="350" y="102" type="line"/>
    </contour>
    <contour>
      <point x="573" y="663" type="curve"/>
      <point x="636" y="784" type="line"/>
      <point x="586" y="858"/>
      <point x="508" y="902"/>
      <point x="424" y="911" type="curve"/>
      <point x="424" y="807" type="line"/>
      <point x="496" y="794"/>
      <point x="556" y="739"/>
    </contour>
  </outline>
</glyph>
<glyph name="emdash.case" format="2">
  <advance width="1440"/>
  <outline>
    <contour>
      <point x="60" y="399" type="line"/>
      <point x="1380" y="399" type="line"/>
      <point x="1380" y="501" type="line"/>
      <point x="60" y="501" type="line"/>
    </contour>
  </outline>
</glyph>
<glyph name="emdash.titl" format="2">
  <advance width="1440"/>
  <outline>
    <contour>
      <point x="60" y="273" type="line"/>
      <point x="1380" y="273" type="line"/>
      <point x="1380" y="327" type="line"/>
      <point x="60" y="327" type="line"/>
    </contour>
  </outline>
</glyph>
<glyph name="five.numr" format="2">
  <advance width="480"/>
  <outline>
    <contour>
      <point x="248" y="410" type="line"/>
      <point x="339" y="424"/>
      <point x="402" y="496"/>
      <point x="402" y="581" type="curve" smooth="yes"/>
      <point x="402" y="668"/>
      <point x="337" y="747"/>
      <point x="232" y="747" type="curve" smooth="yes"/>
      <point x="205" y="747"/>
      <point x="186" y="743"/>
      <point x="167" y="729" type="curve"/>
      <point x="195" y="692" type="line"/>
      <point x="195" y="900" type="line"/>
      <point x="125" y="900" type="line"/>
      <point x="125" y="627" type="line"/>
      <point x="149" y="657"/>
      <point x="177" y="675"/>
      <point x="218" y="675" type="curve" smooth="yes"/>
      <point x="276" y="675"/>
      <point x="316" y="634"/>
      <point x="316" y="581" type="curve" smooth="yes"/>
      <point x="316" y="539"/>
      <point x="290" y="504"/>
      <point x="248" y="493" type="curve"/>
    </contour>
    <contour>
      <point x="192" y="410" type="curve"/>
      <point x="192" y="491" type="line"/>
      <point x="148" y="502"/>
      <point x="117" y="535"/>
      <point x="110" y="580" type="curve"/>
      <point x="62" y="489" type="line"/>
      <point x="91" y="447"/>
      <point x="137" y="418"/>
    </contour>
    <contour>
      <point x="246" y="820" type="line"/>
      <point x="363" y="820" type="line"/>
      <point x="363" y="900" type="line"/>
      <point x="246" y="900" type="line"/>
    </contour>
  </outline>
</glyph>
<glyph name="four.numr" format="2">
  <advance width="480"/>
  <outline>
    <contour>
      <point x="24" y="534" type="line"/>
      <point x="113" y="534" type="line"/>
      <point x="303" y="900" type="line"/>
      <point x="211" y="900" type="line"/>
    </contour>
    <contour>
      <point x="272" y="420" type="line"/>
      <point x="356" y="420" type="line"/>
      <point x="356" y="534" type="line"/>
      <point x="426" y="534" type="line"/>
      <point x="426" y="605" type="line"/>
      <point x="354" y="605" type="line"/>
      <point x="354" y="748" type="line"/>
      <point x="274" y="704" type="line"/>
      <point x="274" y="605" type="line"/>
      <point x="207" y="605" type="line"/>
      <point x="170" y="534" type="line"/>
      <point x="272" y="534" type="line"/>
    </contour>
  </outline>
</glyph>
<glyph name="gravecomb.case" format="2">
  <anchor x="450" y="900" name="_top"/>
  <anchor x="288" y="1170" name="top"/>
  <outline>
    <contour>
      <point x="396" y="990" type="line"/>
      <point x="504" y="990" type="line"/>
      <point x="360" y="1170" type="line"/>
      <point x="216" y="1170" type="line"/>
    </contour>
  </outline>
</glyph>
<glyph name="seven.numr" format="2">
  <advance width="480"/>
  <outline>
    <contour>
      <point x="102" y="420" type="line"/>
      <point x="198" y="420" type="line"/>
      <point x="435" y="900" type="line"/>
      <point x="342" y="900" type="line"/>
    </contour>
    <contour>
      <point x="86" y="820" type="line"/>
      <point x="242" y="820" type="line"/>
      <point x="282" y="900" type="line"/>
      <point x="86" y="900" type="line"/>
    </contour>
  </outline>
</glyph>
<glyph name="six.lf" format="2">
  <advance width="750"/>
  <outline>
    <contour>
      <point x="344" y="-11" type="curve"/>
      <point x="344" y="92" type="line"/>
      <point x="245" y="107"/>
      <point x="170" y="192"/>
      <point x="170" y="295" type="curve" smooth="yes"/>
      <point x="170" y="341"/>
      <point x="182" y="385"/>
      <point x="215" y="445" type="curve" smooth="yes"/>
      <point x="462" y="900" type="line"/>
      <point x="338" y="900" type="line"/>
      <point x="97" y="440" type="line" smooth="yes"/>
      <point x="74" y="396"/>
      <point x="60" y="345"/>
      <point x="60" y="293" type="curve" smooth="yes"/>
      <point x="60" y="131"/>
      <point x="184" y="3"/>
    </contour>
    <contour>
      <point x="408" y="-11" type="line"/>
      <point x="567" y="4"/>
      <point x="690" y="131"/>
      <point x="690" y="294" type="curve" smooth="yes"/>
      <point x="690" y="485"/>
      <point x="542" y="592"/>
      <point x="366" y="592" type="curve"/>
      <point x="311" y="490" type="line"/>
      <point x="332" y="496"/>
      <point x="353" y="500"/>
      <point x="376" y="500" type="curve" smooth="yes"/>
      <point x="492" y="500"/>
      <point x="582" y="407"/>
      <point x="582" y="295" type="curve" smooth="yes"/>
      <point x="582" y="192"/>
      <point x="506" y="106"/>
      <point x="408" y="92" type="curve"/>
    </contour>
  </outline>
</glyph>
<glyph name="three.numr" format="2">
  <advance width="480"/>
  <outline>
    <contour>
      <point x="247" y="410" type="line"/>
      <point x="338" y="423"/>
      <point x="402" y="495"/>
      <point x="402" y="585" type="curve" smooth="yes"/>
      <point x="402" y="673"/>
      <point x="337" y="743"/>
      <point x="255" y="749" type="curve"/>
      <point x="258" y="708" type="line"/>
      <point x="366" y="900" type="line"/>
      <point x="280" y="900" type="line"/>
      <point x="153" y="663" type="line"/>
      <point x="172" y="673"/>
      <point x="193" y="680"/>
      <point x="220" y="680" type="curve" smooth="yes"/>
      <point x="274" y="680"/>
      <point x="316" y="640"/>
      <point x="316" y="584" type="curve" smooth="yes"/>
      <point x="316" y="538"/>
      <point x="289" y="503"/>
      <point x="247" y="492" type="curve"/>
    </contour>
    <contour>
      <point x="191" y="410" type="curve"/>
      <point x="191" y="492" type="line"/>
      <point x="146" y="502"/>
      <point x="117" y="535"/>
      <point x="110" y="580" type="curve"/>
      <point x="62" y="489" type="line"/>
      <point x="91" y="447"/>
      <point x="137" y="418"/>
    </contour>
    <contour>
      <point x="85" y="820" type="line"/>
      <point x="181" y="820" type="line"/>
      <point x="223" y="900" type="line"/>
      <point x="85" y="900" type="line"/>
    </contour>
  </outline>
</glyph>
